<?xml version="1.0" encoding="UTF-8" standalone="no"?>
<svg
   role="img"
   viewBox="0 0 24 24"
   version="1.1"
   id="svg1"
   sodipodi:docname="programming-icon.svg"
   inkscape:version="1.4.2 (2aeb623e1d, 2025-05-12)"
   xmlns:inkscape="http://www.inkscape.org/namespaces/inkscape"
   xmlns:sodipodi="http://sodipodi.sourceforge.net/DTD/sodipodi-0.dtd"
   xmlns="http://www.w3.org/2000/svg"
   xmlns:svg="http://www.w3.org/2000/svg">
  <defs
     id="defs1" />
  <sodipodi:namedview
     id="namedview1"
     pagecolor="#505050"
     bordercolor="#ffffff"
     borderopacity="1"
     inkscape:showpageshadow="0"
     inkscape:pageopacity="0"
     inkscape:pagecheckerboard="1"
     inkscape:deskcolor="#505050"
     inkscape:zoom="36.708333"
     inkscape:cx="11.986379"
     inkscape:cy="12"
     inkscape:window-width="1858"
     inkscape:window-height="1131"
     inkscape:window-x="0"
     inkscape:window-y="0"
     inkscape:window-maximized="1"
     inkscape:current-layer="svg1" />
  <title
     id="title1">GNOME Terminal</title>
  <path
     d="M1.846 0A1.841 1.841 0 000 1.846v18.463c0 1.022.823 1.845 1.846 1.845h20.308A1.841 1.841 0 0024 20.31V1.846A1.841 1.841 0 0022.154 0H1.846zm0 .924h20.308c.512 0 .922.41.922.922v18.463c0 .511-.41.921-.922.921H1.846a.919.919 0 01-.922-.921V1.846c0-.512.41-.922.922-.922zm0 .922v18.463h20.308V1.846H1.846zm1.845 2.14l3.235 1.758v.836L3.69 8.477V7.385l2.243-1.207v-.033L3.69 5.076v-1.09zM7.846 9.23h3.693v.924H7.846V9.23zM0 21.736v.418C0 23.177.823 24 1.846 24h20.308A1.841 1.841 0 0024 22.154v-.418a2.334 2.334 0 01-1.846.918H1.846A2.334 2.334 0 010 21.736Z"
     id="path1"
     style="fill:#05afd1;fill-opacity:1" />
</svg>
